<?xml version="1.0" encoding="utf-8"?>
<!-- Generator: Adobe Illustrator 16.0.0, SVG Export Plug-In . SVG Version: 6.00 Build 0)  -->
<!DOCTYPE svg PUBLIC "-//W3C//DTD SVG 1.1//EN" "http://www.w3.org/Graphics/SVG/1.1/DTD/svg11.dtd">
<svg version="1.1" xmlns="http://www.w3.org/2000/svg" xmlns:xlink="http://www.w3.org/1999/xlink" x="0px" y="0px" width="800px"
	 height="600px" viewBox="0 0 800 600" style="enable-background:new 0 0 800 600;" xml:space="preserve">
<style type="text/css">
<![CDATA[
	.st0{font-family:'HelveticaNeue-CondensedBold';}
	.st1{fill:#4A59A7;}
	.st2{fill:#88231B;}
	.st3{fill:#F8991D;}
	.st4{letter-spacing:10;}
	.st5{letter-spacing:12;}
	.st6{letter-spacing:32;}
	.st7{fill:#FFCC67;}
	.st8{fill:none;}
	.st9{fill:#6791CB;}
	.st10{letter-spacing:1;}
	.st11{fill:#3850A2;}
	.st12{font-size:14;}
	.st13{font-size:25;}
	.st14{font-size:27;}
	.st15{font-size:42;}
	.st16{fill:#DD6643;}
]]>
</style>
<g id="Background">
	<rect width="800" height="600"/>
</g>
<g id="Framework">
	<text id="Station_Title" transform="matrix(1 0 0 1 453 46)" class="st3 st0 st15">TACTICAL SYSTEMS</text>
	<path id="Upper_Elbow" class="st3" d="M792,209.3701172H107.5429688C100.6157227,209.3701172,95,203.921875,95,197.2011719V7H10
		v205.8266602C10,218.9980469,15.3945312,224,22.0483398,224H792V209.3701172z"/>
	<path id="Lower_Elbow" class="st3" d="M95,591V257c0-6.6269531,5.3725586-12,12-12h685v-15H22
		c-6.6274414,0-12,6.0351562-12,13.4799805V591H95z"/>
	<rect x="163" y="203.75" width="9" height="51"/>
	<rect x="278.6000977" y="203.75" width="9" height="51"/>
	<rect x="509.7998047" y="203.75" width="9" height="51"/>
	<rect x="394.2001953" y="203.75" width="9" height="51"/>
	<rect x="625.4003906" y="203.75" width="9" height="51"/>
	<rect x="741" y="203.75" width="9" height="51"/>
	<rect x="5" y="305" width="95" height="9"/>
	<rect x="5" y="406" width="95" height="9"/>
	<rect x="5" y="450" width="95" height="9"/>
	<rect x="5" y="79" width="95" height="9"/>
	<g id="Text_Display">
		<text id="Registry" transform="matrix(1 0 0 1 147 85)"><tspan x="0" y="0" class="st11 st0 st12">STARSHIP: U.S.S. THUNDERCHILD</tspan><tspan x="0" y="16.7998047" class="st11 st0 st12">REGISTRY: NCC-63549</tspan><tspan x="0" y="33.6000977" class="st11 st0 st12">CLASS: AKIRA, HEAVY CRUISER</tspan><tspan x="0" y="50.3999023" class="st11 st0 st12">LAUNCHED: 2369</tspan><tspan x="0" y="67.2001953" class="st11 st0 st12">CAPTAIN: CHUNG, JUSTIN</tspan></text>
		<rect x="385" y="76" class="st8" width="407" height="91"/>
		<text transform="matrix(1 0 0 1 385 85.9960938)"><tspan x="0" y="0" class="st9 st0 st12">1212351234</tspan><tspan x="67.1972656" y="0" class="st9 st0 st12 st10">	</tspan><tspan x="71.9980469" y="0" class="st9 st0 st12 st6">	</tspan><tspan x="107.9980469" y="0" class="st9 st0 st12">234</tspan><tspan x="128.1572266" y="0" class="st9 st0 st12 st5">	</tspan><tspan x="143.9970703" y="0" class="st9 st0 st12 st6">	</tspan><tspan x="179.9970703" y="0" class="st9 st0 st12">51462305706803</tspan><tspan x="274.0732422" y="0" class="st9 st0 st12 st4">	</tspan><tspan x="287.9941406" y="0" class="st9 st0 st12 st6">	</tspan><tspan x="323.9941406" y="0" class="st9 st0 st12">45234657</tspan><tspan x="0" y="16.7998047" class="st9 st0 st12">5523456785</tspan><tspan x="67.1972656" y="16.7998047" class="st9 st0 st12 st10">	</tspan><tspan x="71.9980469" y="16.7998047" class="st9 st0 st12 st6">	</tspan><tspan x="107.9980469" y="16.7998047" class="st9 st0 st12">525</tspan><tspan x="128.1572266" y="16.7998047" class="st9 st0 st12 st5">	</tspan><tspan x="143.9970703" y="16.7998047" class="st9 st0 st12 st6">	</tspan><tspan x="179.9970703" y="16.7998047" class="st9 st0 st12">43783451045834</tspan><tspan x="274.0732422" y="16.7998047" class="st9 st0 st12 st4">	</tspan><tspan x="287.9941406" y="16.7998047" class="st9 st0 st12 st6">	</tspan><tspan x="323.9941406" y="16.7998047" class="st9 st0 st12">52347059</tspan><tspan x="0" y="33.5996094" class="st9 st0 st12">2474599567</tspan><tspan x="67.1972656" y="33.5996094" class="st9 st0 st12 st10">	</tspan><tspan x="71.9980469" y="33.5996094" class="st9 st0 st12 st6">	</tspan><tspan x="107.9980469" y="33.5996094" class="st9 st0 st12">769</tspan><tspan x="128.1572266" y="33.5996094" class="st9 st0 st12 st5">	</tspan><tspan x="143.9970703" y="33.5996094" class="st9 st0 st12 st6">	</tspan><tspan x="179.9970703" y="33.5996094" class="st9 st0 st12">23468860502848</tspan><tspan x="274.0732422" y="33.5996094" class="st9 st0 st12 st4">	</tspan><tspan x="287.9941406" y="33.5996094" class="st9 st0 st12 st6">	</tspan><tspan x="323.9941406" y="33.5996094" class="st9 st0 st12">39859085</tspan><tspan x="0" y="50.3999023" class="st9 st0 st12">9646734574</tspan><tspan x="67.1972656" y="50.3999023" class="st9 st0 st12 st10">	</tspan><tspan x="71.9980469" y="50.3999023" class="st9 st0 st12 st6">	</tspan><tspan x="107.9980469" y="50.3999023" class="st9 st0 st12">341</tspan><tspan x="128.1572266" y="50.3999023" class="st9 st0 st12 st5">	</tspan><tspan x="143.9970703" y="50.3999023" class="st9 st0 st12 st6">	</tspan><tspan x="179.9970703" y="50.3999023" class="st9 st0 st12">14645680234595</tspan><tspan x="274.0732422" y="50.3999023" class="st9 st0 st12 st4">	</tspan><tspan x="287.9941406" y="50.3999023" class="st9 st0 st12 st6">	</tspan><tspan x="323.9941406" y="50.3999023" class="st9 st0 st12">12037794</tspan><tspan x="0" y="67.199707" class="st9 st0 st12">5238751023</tspan><tspan x="67.1972656" y="67.199707" class="st9 st0 st12 st10">	</tspan><tspan x="71.9980469" y="67.199707" class="st9 st0 st12 st6">	</tspan><tspan x="107.9980469" y="67.199707" class="st9 st0 st12">170</tspan><tspan x="128.1572266" y="67.199707" class="st9 st0 st12 st5">	</tspan><tspan x="143.9970703" y="67.199707" class="st9 st0 st12 st6">	</tspan><tspan x="179.9970703" y="67.199707" class="st9 st0 st12">23477587914126</tspan><tspan x="274.0732422" y="67.199707" class="st9 st0 st12 st4">	</tspan><tspan x="287.9941406" y="67.199707" class="st9 st0 st12 st6">	</tspan><tspan x="323.9941406" y="67.199707" class="st9 st0 st12">94871739</tspan></text>
	</g>
	<text transform="matrix(1 0 0 1 528 193)" class="st2 st0 st14">RED ALERT - CHARGING</text>
</g>
<g id="Starship_Display">
	
		<image style="overflow:visible;" width="1002" height="1412" xlink:href="94D08245CA6F7728.png"  transform="matrix(0.24 0 0 0.24 118.6606445 257.75)">
	</image>
</g>
<g id="Buttons">
	<g id="Phasers">
		<g id="Phaser_Group">
			<g id="Button4">
				<path class="st1" d="M580.3603516,414.0078125c0,4.96875-5.0878906,8.9941406-11.3632812,8.9941406h-84.2822266
					c-6.2753906,0-11.3632812-4.0253906-11.3632812-8.9941406V381.03125c0-4.9667969,5.0878906-8.9941406,11.3632812-8.9941406
					h84.2822266c6.2753906,0,11.3632812,4.0273438,11.3632812,8.9941406V414.0078125z"/>
				<text transform="matrix(1 0 0 1 501.3515625 414.5371094)" class="st0 st12">VENTRAL 1</text>
			</g>
			<g id="Button3">
				<path class="st16" d="M687.3691406,345.9892578c0,4.9677734-5.0878906,8.9941406-11.3632812,8.9941406h-84.2822266
					c-6.2753906,0-11.3632812-4.0263672-11.3632812-8.9941406v-32.9765625c0-4.9677734,5.0878906-8.9941406,11.3632812-8.9941406
					h84.2822266c6.2753906,0,11.3632812,4.0263672,11.3632812,8.9941406V345.9892578z"/>
				<text transform="matrix(1 0 0 1 644.3603516 346.5175781)" class="st0 st12">AFT</text>
			</g>
			<g id="Button2">
				<path class="st16" d="M580.3603516,345.9892578c0,4.9677734-5.0878906,8.9941406-11.3632812,8.9941406h-84.2822266
					c-6.2753906,0-11.3632812-4.0263672-11.3632812-8.9941406v-32.9765625c0-4.9667969,5.0878906-8.9941406,11.3632812-8.9941406
					h84.2822266c6.2753906,0,11.3632812,4.0273438,11.3632812,8.9941406V345.9892578z"/>
				<text transform="matrix(1 0 0 1 514.3515625 346.5175781)" class="st0 st12">DORSAL</text>
			</g>
			<g id="Button1">
				<path class="st1" d="M687.3691406,414.0078125c0,4.9667969-5.0878906,8.9941406-11.3632812,8.9941406h-84.2822266
					c-6.2753906,0-11.3632812-4.0273438-11.3632812-8.9941406V381.03125c0-4.96875,5.0878906-8.9941406,11.3632812-8.9941406
					h84.2822266c6.2753906,0,11.3632812,4.0253906,11.3632812,8.9941406V414.0078125z"/>
				<text transform="matrix(1 0 0 1 607.3603516 414.5351562)" class="st0 st12">VENTRAL 2</text>
			</g>
			<rect x="571.0517578" y="291.5009766" width="18.9003906" height="151"/>
		</g>
		<g id="Phaser_Title">
			<text transform="matrix(1 0 0 1 470.1777344 285.5009766)" class="st7 st0 st13">PHASERS</text>
			<g>
				<path class="st7" d="M464.1777344,266.3320312h-5.078125c-6.5839844,0-11.921875,3.8701172-11.921875,8.644043v2.8813477
					c0,4.7734375,5.3378906,8.6435547,11.921875,8.6435547h5.078125V266.3320312z"/>
				<path class="st7" d="M695.5498047,266.3320312H567.1777344v20.1689453h128.3720703
					c6.5830078,0,11.9208984-3.8701172,11.9208984-8.6435547v-2.8813477
					C707.4707031,270.2021484,702.1328125,266.3320312,695.5498047,266.3320312z"/>
			</g>
		</g>
	</g>
	<g id="Torpedoes">
		<g>
			<path class="st7" d="M467.2138672,487.4160156h-5.078125c-6.5839844,0-11.921875,3.8691406-11.921875,8.6445312v2.8808594
				c0,4.7734375,5.3378906,8.6425781,11.921875,8.6425781h5.078125V487.4160156z"/>
			<path class="st7" d="M698.5859375,487.4160156H570.2138672v20.1679688h128.3720703
				c6.5830078,0,11.9208984-3.8691406,11.9208984-8.6425781v-2.8808594
				C710.5068359,491.2851562,705.1689453,487.4160156,698.5859375,487.4160156z"/>
		</g>
		<g id="Button6">
			<path class="st16" d="M687.5107422,567.9892578c0,4.9677734-5.0878906,8.9941406-11.3632812,8.9941406h-84.2822266
				c-6.2753906,0-11.3632812-4.0263672-11.3632812-8.9941406v-32.9765625c0-4.9677734,5.0878906-8.9941406,11.3632812-8.9941406
				h84.2822266c6.2753906,0,11.3632812,4.0263672,11.3632812,8.9941406V567.9892578z"/>
			<text transform="matrix(1 0 0 1 644.5019531 568.5175781)" class="st0 st12">AFT</text>
		</g>
		<g id="Button5">
			<path class="st16" d="M580.5019531,567.9892578c0,4.9677734-5.0878906,8.9941406-11.3632812,8.9941406h-84.2822266
				c-6.2753906,0-11.3632812-4.0263672-11.3632812-8.9941406v-32.9765625c0-4.9667969,5.0878906-8.9941406,11.3632812-8.9941406
				h84.2822266c6.2753906,0,11.3632812,4.0273438,11.3632812,8.9941406V567.9892578z"/>
			<text transform="matrix(1 0 0 1 507.4931641 568.5175781)" class="st0 st12">FORWARD</text>
		</g>
		<rect x="571.1933594" y="517.5" width="18.9003906" height="75.5"/>
		<rect x="569.8007812" y="479.75" width="22.9160156" height="35.5"/>
		<text transform="matrix(1 0 0 1 470.1777344 505.5839844)" class="st7 st0 st13">TORPEDOES</text>
	</g>
</g>
</svg>
